<mxfile host="app.diagrams.net" modified="2024-04-03T08:08:58.166Z" agent="Mozilla/5.0 (Windows NT 10.0; Win64; x64; rv:124.0) Gecko/20100101 Firefox/124.0" etag="9YEFfQVZILnWsR4S49Kz" version="24.2.1" type="device">
  <diagram name="Страница — 1" id="dKUkYGr1s_UcH-8YKei1">
    <mxGraphModel dx="768" dy="425" grid="1" gridSize="10" guides="1" tooltips="1" connect="1" arrows="1" fold="1" page="1" pageScale="1" pageWidth="827" pageHeight="1169" math="0" shadow="0">
      <root>
        <mxCell id="0" />
        <mxCell id="1" parent="0" />
        <mxCell id="oU2BkXmcU1scd5kveSyB-1" value="Customer" style="swimlane;fontStyle=1;align=center;verticalAlign=top;childLayout=stackLayout;horizontal=1;startSize=26;horizontalStack=0;resizeParent=1;resizeParentMax=0;resizeLast=0;collapsible=1;marginBottom=0;whiteSpace=wrap;html=1;" parent="1" vertex="1">
          <mxGeometry x="40" y="40" width="190" height="160" as="geometry" />
        </mxCell>
        <mxCell id="oU2BkXmcU1scd5kveSyB-2" value="- _id : int&lt;br&gt;- _fullName : string&lt;br&gt;- _address : string" style="text;strokeColor=none;fillColor=none;align=left;verticalAlign=top;spacingLeft=4;spacingRight=4;overflow=hidden;rotatable=0;points=[[0,0.5],[1,0.5]];portConstraint=eastwest;whiteSpace=wrap;html=1;" parent="oU2BkXmcU1scd5kveSyB-1" vertex="1">
          <mxGeometry y="26" width="190" height="64" as="geometry" />
        </mxCell>
        <mxCell id="oU2BkXmcU1scd5kveSyB-3" value="" style="line;strokeWidth=1;fillColor=none;align=left;verticalAlign=middle;spacingTop=-1;spacingLeft=3;spacingRight=3;rotatable=0;labelPosition=right;points=[];portConstraint=eastwest;strokeColor=inherit;" parent="oU2BkXmcU1scd5kveSyB-1" vertex="1">
          <mxGeometry y="90" width="190" height="8" as="geometry" />
        </mxCell>
        <mxCell id="oU2BkXmcU1scd5kveSyB-4" value="+ Id{get;}() : int&lt;br&gt;+ FullName{get; set;}() : string&lt;br&gt;+ Address{get; set;}() : Address" style="text;strokeColor=none;fillColor=none;align=left;verticalAlign=top;spacingLeft=4;spacingRight=4;overflow=hidden;rotatable=0;points=[[0,0.5],[1,0.5]];portConstraint=eastwest;whiteSpace=wrap;html=1;" parent="oU2BkXmcU1scd5kveSyB-1" vertex="1">
          <mxGeometry y="98" width="190" height="62" as="geometry" />
        </mxCell>
        <mxCell id="oU2BkXmcU1scd5kveSyB-5" value="Item" style="swimlane;fontStyle=1;align=center;verticalAlign=top;childLayout=stackLayout;horizontal=1;startSize=26;horizontalStack=0;resizeParent=1;resizeParentMax=0;resizeLast=0;collapsible=1;marginBottom=0;whiteSpace=wrap;html=1;" parent="1" vertex="1">
          <mxGeometry x="40" y="220" width="160" height="180" as="geometry" />
        </mxCell>
        <mxCell id="oU2BkXmcU1scd5kveSyB-6" value="- _id : int&lt;br&gt;- _name : string&lt;br&gt;- _info : string&lt;br&gt;- _cost : float" style="text;strokeColor=none;fillColor=none;align=left;verticalAlign=top;spacingLeft=4;spacingRight=4;overflow=hidden;rotatable=0;points=[[0,0.5],[1,0.5]];portConstraint=eastwest;whiteSpace=wrap;html=1;" parent="oU2BkXmcU1scd5kveSyB-5" vertex="1">
          <mxGeometry y="26" width="160" height="74" as="geometry" />
        </mxCell>
        <mxCell id="oU2BkXmcU1scd5kveSyB-7" value="" style="line;strokeWidth=1;fillColor=none;align=left;verticalAlign=middle;spacingTop=-1;spacingLeft=3;spacingRight=3;rotatable=0;labelPosition=right;points=[];portConstraint=eastwest;strokeColor=inherit;" parent="oU2BkXmcU1scd5kveSyB-5" vertex="1">
          <mxGeometry y="100" width="160" height="8" as="geometry" />
        </mxCell>
        <mxCell id="oU2BkXmcU1scd5kveSyB-8" value="+ Id{get;}() : int&lt;br&gt;+ Name{get; set;}() : string&lt;br&gt;+ Info{get; set;}() : string&lt;br&gt;+ Cost{get; set;}() : float" style="text;strokeColor=none;fillColor=none;align=left;verticalAlign=top;spacingLeft=4;spacingRight=4;overflow=hidden;rotatable=0;points=[[0,0.5],[1,0.5]];portConstraint=eastwest;whiteSpace=wrap;html=1;" parent="oU2BkXmcU1scd5kveSyB-5" vertex="1">
          <mxGeometry y="108" width="160" height="72" as="geometry" />
        </mxCell>
        <mxCell id="oU2BkXmcU1scd5kveSyB-9" value="&lt;span style=&quot;font-weight: normal;&quot;&gt;&amp;lt;&amp;lt;static&amp;gt;&amp;gt;&lt;/span&gt;&lt;br&gt;IdGenerator" style="swimlane;fontStyle=1;align=center;verticalAlign=top;childLayout=stackLayout;horizontal=1;startSize=40;horizontalStack=0;resizeParent=1;resizeParentMax=0;resizeLast=0;collapsible=1;marginBottom=0;whiteSpace=wrap;html=1;" parent="1" vertex="1">
          <mxGeometry x="360" y="40" width="90" height="100" as="geometry" />
        </mxCell>
        <mxCell id="oU2BkXmcU1scd5kveSyB-10" value="- _id : int" style="text;strokeColor=none;fillColor=none;align=left;verticalAlign=top;spacingLeft=4;spacingRight=4;overflow=hidden;rotatable=0;points=[[0,0.5],[1,0.5]];portConstraint=eastwest;whiteSpace=wrap;html=1;" parent="oU2BkXmcU1scd5kveSyB-9" vertex="1">
          <mxGeometry y="40" width="90" height="24" as="geometry" />
        </mxCell>
        <mxCell id="oU2BkXmcU1scd5kveSyB-11" value="" style="line;strokeWidth=1;fillColor=none;align=left;verticalAlign=middle;spacingTop=-1;spacingLeft=3;spacingRight=3;rotatable=0;labelPosition=right;points=[];portConstraint=eastwest;strokeColor=inherit;" parent="oU2BkXmcU1scd5kveSyB-9" vertex="1">
          <mxGeometry y="64" width="90" height="8" as="geometry" />
        </mxCell>
        <mxCell id="oU2BkXmcU1scd5kveSyB-12" value="+ GetId() : int" style="text;strokeColor=none;fillColor=none;align=left;verticalAlign=top;spacingLeft=4;spacingRight=4;overflow=hidden;rotatable=0;points=[[0,0.5],[1,0.5]];portConstraint=eastwest;whiteSpace=wrap;html=1;" parent="oU2BkXmcU1scd5kveSyB-9" vertex="1">
          <mxGeometry y="72" width="90" height="28" as="geometry" />
        </mxCell>
        <mxCell id="oU2BkXmcU1scd5kveSyB-17" value="&amp;lt;&amp;lt;static&amp;gt;&amp;gt;&lt;br&gt;&lt;b&gt;ValueValidator&lt;/b&gt;" style="swimlane;fontStyle=0;childLayout=stackLayout;horizontal=1;startSize=30;fillColor=none;horizontalStack=0;resizeParent=1;resizeParentMax=0;resizeLast=0;collapsible=1;marginBottom=0;whiteSpace=wrap;html=1;" parent="1" vertex="1">
          <mxGeometry x="360" y="160" width="440" height="80" as="geometry" />
        </mxCell>
        <mxCell id="oU2BkXmcU1scd5kveSyB-18" value="&lt;div&gt;+ StringLengthCheck(string: value, int: maxLength, string: property): void&lt;br&gt;&lt;/div&gt;&lt;div&gt;+ FloatLimitCheck(float: value, float: min, float: max, string: property): void&lt;br&gt;&lt;/div&gt;" style="text;strokeColor=none;fillColor=none;align=left;verticalAlign=top;spacingLeft=4;spacingRight=4;overflow=hidden;rotatable=0;points=[[0,0.5],[1,0.5]];portConstraint=eastwest;whiteSpace=wrap;html=1;" parent="oU2BkXmcU1scd5kveSyB-17" vertex="1">
          <mxGeometry y="30" width="440" height="50" as="geometry" />
        </mxCell>
        <mxCell id="JcwKcsIoiEsxzj-9efr9-1" style="edgeStyle=orthogonalEdgeStyle;rounded=0;orthogonalLoop=1;jettySize=auto;html=1;entryX=-0.019;entryY=0.286;entryDx=0;entryDy=0;entryPerimeter=0;dashed=1;exitX=1.018;exitY=0.844;exitDx=0;exitDy=0;exitPerimeter=0;" parent="1" source="oU2BkXmcU1scd5kveSyB-2" target="oU2BkXmcU1scd5kveSyB-12" edge="1">
          <mxGeometry relative="1" as="geometry">
            <mxPoint x="240" y="120" as="sourcePoint" />
          </mxGeometry>
        </mxCell>
        <mxCell id="JcwKcsIoiEsxzj-9efr9-2" style="edgeStyle=orthogonalEdgeStyle;rounded=0;orthogonalLoop=1;jettySize=auto;html=1;entryX=-0.009;entryY=0.113;entryDx=0;entryDy=0;entryPerimeter=0;dashed=1;" parent="1" source="oU2BkXmcU1scd5kveSyB-4" target="oU2BkXmcU1scd5kveSyB-17" edge="1">
          <mxGeometry relative="1" as="geometry" />
        </mxCell>
        <mxCell id="JcwKcsIoiEsxzj-9efr9-5" style="edgeStyle=orthogonalEdgeStyle;rounded=0;orthogonalLoop=1;jettySize=auto;html=1;entryX=-0.006;entryY=0.39;entryDx=0;entryDy=0;entryPerimeter=0;dashed=1;" parent="1" source="oU2BkXmcU1scd5kveSyB-8" target="oU2BkXmcU1scd5kveSyB-18" edge="1">
          <mxGeometry relative="1" as="geometry">
            <mxPoint x="500" y="250" as="targetPoint" />
          </mxGeometry>
        </mxCell>
        <mxCell id="JcwKcsIoiEsxzj-9efr9-7" style="edgeStyle=orthogonalEdgeStyle;rounded=0;orthogonalLoop=1;jettySize=auto;html=1;entryX=0;entryY=0.5;entryDx=0;entryDy=0;dashed=1;" parent="1" source="oU2BkXmcU1scd5kveSyB-6" target="oU2BkXmcU1scd5kveSyB-10" edge="1">
          <mxGeometry relative="1" as="geometry" />
        </mxCell>
        <mxCell id="JcwKcsIoiEsxzj-9efr9-8" value="use" style="text;html=1;align=center;verticalAlign=middle;whiteSpace=wrap;rounded=0;" parent="1" vertex="1">
          <mxGeometry x="220" y="260" width="60" height="30" as="geometry" />
        </mxCell>
        <mxCell id="JcwKcsIoiEsxzj-9efr9-9" value="use" style="text;html=1;align=center;verticalAlign=middle;whiteSpace=wrap;rounded=0;" parent="1" vertex="1">
          <mxGeometry x="220" y="340" width="60" height="30" as="geometry" />
        </mxCell>
        <mxCell id="JcwKcsIoiEsxzj-9efr9-10" value="use" style="text;html=1;align=center;verticalAlign=middle;whiteSpace=wrap;rounded=0;" parent="1" vertex="1">
          <mxGeometry x="230" y="120" width="60" height="30" as="geometry" />
        </mxCell>
        <mxCell id="JcwKcsIoiEsxzj-9efr9-11" value="use" style="text;html=1;align=center;verticalAlign=middle;whiteSpace=wrap;rounded=0;" parent="1" vertex="1">
          <mxGeometry x="230" y="160" width="60" height="30" as="geometry" />
        </mxCell>
        <mxCell id="XlUjkA7irEBNoYXnKt0v-1" value="Address" style="swimlane;fontStyle=1;align=center;verticalAlign=top;childLayout=stackLayout;horizontal=1;startSize=26;horizontalStack=0;resizeParent=1;resizeParentMax=0;resizeLast=0;collapsible=1;marginBottom=0;whiteSpace=wrap;html=1;" vertex="1" parent="1">
          <mxGeometry x="40" y="420" width="180" height="240" as="geometry" />
        </mxCell>
        <mxCell id="XlUjkA7irEBNoYXnKt0v-2" value="- _index : int&lt;br&gt;- _country : string&lt;br&gt;- _city : string&lt;br&gt;&lt;div&gt;- _street : string&lt;br&gt;&lt;/div&gt;&lt;div&gt;_building : string&lt;/div&gt;&lt;div&gt;_apartment : string&lt;br&gt;&lt;/div&gt;" style="text;strokeColor=none;fillColor=none;align=left;verticalAlign=top;spacingLeft=4;spacingRight=4;overflow=hidden;rotatable=0;points=[[0,0.5],[1,0.5]];portConstraint=eastwest;whiteSpace=wrap;html=1;" vertex="1" parent="XlUjkA7irEBNoYXnKt0v-1">
          <mxGeometry y="26" width="180" height="104" as="geometry" />
        </mxCell>
        <mxCell id="XlUjkA7irEBNoYXnKt0v-3" value="" style="line;strokeWidth=1;fillColor=none;align=left;verticalAlign=middle;spacingTop=-1;spacingLeft=3;spacingRight=3;rotatable=0;labelPosition=right;points=[];portConstraint=eastwest;strokeColor=inherit;" vertex="1" parent="XlUjkA7irEBNoYXnKt0v-1">
          <mxGeometry y="130" width="180" height="8" as="geometry" />
        </mxCell>
        <mxCell id="XlUjkA7irEBNoYXnKt0v-4" value="+ Index{get; set;}() : int&lt;br&gt;+ Country{get; set;}() : string&lt;br&gt;+ City{get; set;}() : string&lt;br&gt;&lt;div&gt;+ Street{get; set;}() : float&lt;/div&gt;&lt;div&gt;+ Building{get; set;}() : float&lt;/div&gt;&lt;div&gt;+ Apartment{get; set;}() : float&lt;/div&gt;" style="text;strokeColor=none;fillColor=none;align=left;verticalAlign=top;spacingLeft=4;spacingRight=4;overflow=hidden;rotatable=0;points=[[0,0.5],[1,0.5]];portConstraint=eastwest;whiteSpace=wrap;html=1;" vertex="1" parent="XlUjkA7irEBNoYXnKt0v-1">
          <mxGeometry y="138" width="180" height="102" as="geometry" />
        </mxCell>
        <mxCell id="XlUjkA7irEBNoYXnKt0v-6" style="edgeStyle=orthogonalEdgeStyle;rounded=0;orthogonalLoop=1;jettySize=auto;html=1;entryX=1;entryY=0.5;entryDx=0;entryDy=0;endArrow=diamond;endFill=1;" edge="1" parent="1" source="XlUjkA7irEBNoYXnKt0v-2" target="oU2BkXmcU1scd5kveSyB-2">
          <mxGeometry relative="1" as="geometry" />
        </mxCell>
        <mxCell id="XlUjkA7irEBNoYXnKt0v-8" value="&lt;span style=&quot;font-weight: normal;&quot;&gt;&amp;lt;&amp;lt;enumeration&amp;gt;&amp;gt;&lt;/span&gt;&lt;br&gt;IdGenerator" style="swimlane;fontStyle=1;align=center;verticalAlign=top;childLayout=stackLayout;horizontal=1;startSize=40;horizontalStack=0;resizeParent=1;resizeParentMax=0;resizeLast=0;collapsible=1;marginBottom=0;whiteSpace=wrap;html=1;" vertex="1" parent="1">
          <mxGeometry x="360" y="260" width="100" height="160" as="geometry" />
        </mxCell>
        <mxCell id="XlUjkA7irEBNoYXnKt0v-9" value="&lt;div&gt;Phones&lt;/div&gt;&lt;div&gt;Computers&lt;/div&gt;&lt;div&gt;Electronics&lt;/div&gt;&lt;div&gt;Cloths&lt;/div&gt;&lt;div&gt;Food&lt;/div&gt;&lt;div&gt;Health&lt;/div&gt;&lt;div&gt;Games&lt;br&gt;&lt;/div&gt;" style="text;strokeColor=none;fillColor=none;align=left;verticalAlign=top;spacingLeft=4;spacingRight=4;overflow=hidden;rotatable=0;points=[[0,0.5],[1,0.5]];portConstraint=eastwest;whiteSpace=wrap;html=1;" vertex="1" parent="XlUjkA7irEBNoYXnKt0v-8">
          <mxGeometry y="40" width="100" height="120" as="geometry" />
        </mxCell>
        <mxCell id="XlUjkA7irEBNoYXnKt0v-12" style="edgeStyle=orthogonalEdgeStyle;rounded=0;orthogonalLoop=1;jettySize=auto;html=1;entryX=1.01;entryY=0.802;entryDx=0;entryDy=0;entryPerimeter=0;exitX=-0.018;exitY=0.045;exitDx=0;exitDy=0;exitPerimeter=0;endArrow=diamond;endFill=1;" edge="1" parent="1" source="XlUjkA7irEBNoYXnKt0v-9" target="oU2BkXmcU1scd5kveSyB-6">
          <mxGeometry relative="1" as="geometry" />
        </mxCell>
      </root>
    </mxGraphModel>
  </diagram>
</mxfile>
